<?xml version="1.0" encoding="UTF-8"?>
<svg version="1.1" xmlns="http://www.w3.org/2000/svg" width="1000" height="1000">
<path d="M0,0 L2,0 L2,1 L173,1 L173,2 L174,2 L174,3 L175,3 L175,4 L176,4 L176,5 L177,5 L177,6 L178,6 L178,7 L179,7 L179,9 L180,9 L180,10 L181,10 L181,11 L182,11 L182,13 L183,13 L183,14 L184,14 L184,15 L185,15 L185,17 L186,17 L186,18 L187,18 L187,19 L188,19 L188,21 L189,21 L189,22 L191,22 L191,24 L192,24 L192,25 L193,25 L193,26 L194,26 L194,28 L195,28 L195,29 L196,29 L196,30 L197,30 L197,32 L198,32 L198,33 L199,33 L199,34 L200,34 L200,35 L201,35 L201,37 L202,37 L202,38 L203,38 L203,39 L204,39 L204,41 L205,41 L205,42 L206,42 L206,43 L207,43 L207,45 L208,45 L208,46 L209,46 L209,47 L210,47 L210,49 L211,49 L211,50 L212,50 L212,51 L213,51 L213,52 L214,52 L214,53 L215,53 L215,55 L216,55 L216,56 L217,56 L217,58 L218,58 L218,59 L219,59 L219,60 L220,60 L220,61 L221,61 L221,63 L222,63 L222,64 L223,64 L223,65 L224,65 L224,66 L225,66 L225,68 L226,68 L226,69 L227,69 L227,71 L228,71 L228,72 L229,72 L229,73 L230,73 L230,75 L231,75 L231,76 L232,76 L232,77 L233,77 L233,78 L234,78 L234,80 L235,80 L235,81 L236,81 L236,82 L237,82 L237,83 L238,83 L238,84 L239,84 L239,86 L240,86 L240,88 L241,88 L241,89 L242,89 L242,90 L243,90 L243,91 L244,91 L244,92 L245,92 L245,93 L246,93 L246,95 L247,95 L247,96 L248,96 L248,98 L249,98 L249,99 L250,99 L250,100 L251,100 L251,101 L252,101 L252,102 L253,102 L253,104 L254,104 L254,105 L255,105 L255,106 L256,106 L256,107 L257,107 L257,109 L258,109 L258,110 L259,110 L259,112 L260,112 L260,113 L261,113 L261,114 L262,114 L262,115 L263,115 L263,116 L264,116 L264,118 L265,118 L265,119 L266,119 L266,120 L267,120 L267,122 L268,122 L268,123 L269,123 L269,125 L270,125 L270,126 L271,126 L271,127 L272,127 L272,128 L273,128 L273,130 L274,130 L274,131 L275,131 L275,132 L276,132 L276,133 L277,133 L277,134 L278,134 L278,136 L279,136 L279,137 L280,137 L280,138 L281,138 L281,140 L282,140 L282,141 L283,141 L283,142 L284,142 L284,143 L285,143 L285,145 L286,145 L286,146 L287,146 L287,148 L288,148 L288,149 L289,149 L289,150 L290,150 L290,151 L291,151 L291,153 L292,153 L292,154 L293,154 L293,155 L294,155 L294,156 L295,156 L295,157 L296,157 L296,159 L297,159 L297,160 L298,160 L298,161 L299,161 L299,162 L300,162 L300,164 L301,164 L301,166 L302,166 L302,167 L303,167 L303,168 L304,168 L304,169 L305,169 L305,171 L306,171 L306,172 L307,172 L307,174 L308,174 L308,175 L310,175 L310,176 L311,176 L311,178 L312,178 L312,179 L313,179 L313,181 L314,181 L314,182 L315,182 L315,183 L316,183 L316,184 L317,184 L317,186 L318,186 L318,187 L319,187 L319,188 L320,188 L320,190 L321,190 L321,191 L322,191 L322,192 L323,192 L323,193 L324,193 L324,194 L325,194 L325,196 L326,196 L326,197 L327,197 L327,199 L328,199 L328,200 L329,200 L329,201 L330,201 L330,203 L331,203 L331,204 L332,204 L332,205 L333,205 L333,206 L334,206 L334,208 L335,208 L335,209 L336,209 L336,210 L337,210 L337,212 L338,212 L338,213 L339,213 L339,214 L340,214 L340,216 L341,216 L341,217 L342,217 L342,218 L343,218 L343,219 L344,219 L344,221 L345,221 L345,222 L346,222 L346,223 L347,223 L347,224 L348,224 L348,226 L349,226 L349,227 L350,227 L350,228 L351,228 L351,229 L352,229 L352,231 L353,231 L353,232 L354,232 L354,233 L355,233 L355,235 L356,235 L356,236 L357,236 L357,237 L358,237 L358,238 L359,238 L359,239 L360,239 L360,241 L361,241 L361,243 L362,243 L362,244 L363,244 L363,245 L364,245 L364,246 L365,246 L365,248 L366,248 L366,249 L367,249 L367,250 L368,250 L368,252 L369,252 L369,254 L370,254 L370,255 L369,255 L369,256 L358,256 L358,257 L347,257 L347,256 L202,256 L202,257 L201,257 L201,256 L190,256 L190,255 L189,255 L189,253 L188,253 L188,252 L187,252 L187,251 L186,251 L186,249 L185,249 L185,248 L184,248 L184,246 L183,246 L183,245 L182,245 L182,244 L181,244 L181,242 L180,242 L180,241 L179,241 L179,240 L178,240 L178,238 L177,238 L177,237 L176,237 L176,236 L175,236 L175,235 L174,235 L174,233 L173,233 L173,232 L172,232 L172,231 L171,231 L171,229 L170,229 L170,228 L169,228 L169,227 L168,227 L168,226 L167,226 L167,224 L166,224 L166,223 L165,223 L165,222 L164,222 L164,220 L163,220 L163,219 L162,219 L162,218 L161,218 L161,216 L160,216 L160,215 L159,215 L159,214 L158,214 L158,213 L157,213 L157,212 L156,212 L156,210 L155,210 L155,209 L154,209 L154,208 L153,208 L153,207 L152,207 L152,206 L151,206 L151,204 L150,204 L150,203 L149,203 L149,202 L148,202 L148,200 L147,200 L147,199 L146,199 L146,197 L145,197 L145,196 L144,196 L144,194 L143,194 L143,193 L142,193 L142,192 L141,192 L141,191 L140,191 L140,190 L139,190 L139,189 L138,189 L138,187 L137,187 L137,186 L136,186 L136,185 L135,185 L135,184 L134,184 L134,183 L133,183 L133,181 L132,181 L132,179 L131,179 L131,178 L130,178 L130,177 L129,177 L129,176 L128,176 L128,174 L127,174 L127,173 L126,173 L126,172 L125,172 L125,171 L124,171 L124,169 L123,169 L123,168 L122,168 L122,167 L121,167 L121,166 L120,166 L120,164 L119,164 L119,162 L118,162 L118,161 L117,161 L117,160 L116,160 L116,159 L115,159 L115,157 L114,157 L114,156 L113,156 L113,155 L112,155 L112,154 L111,154 L111,153 L110,153 L110,151 L109,151 L109,150 L108,150 L108,149 L107,149 L107,148 L106,148 L106,147 L105,147 L105,145 L104,145 L104,143 L103,143 L103,142 L102,142 L102,141 L101,141 L101,140 L100,140 L100,139 L99,139 L99,137 L98,137 L98,136 L97,136 L97,135 L96,135 L96,133 L95,133 L95,132 L94,132 L94,130 L93,130 L93,129 L92,129 L92,128 L91,128 L91,126 L90,126 L90,125 L89,125 L89,124 L88,124 L88,123 L87,123 L87,122 L86,122 L86,120 L85,120 L85,119 L84,119 L84,118 L83,118 L83,117 L82,117 L82,116 L81,116 L81,114 L80,114 L80,112 L79,112 L79,111 L78,111 L78,110 L77,110 L77,109 L76,109 L76,108 L75,108 L75,107 L74,107 L74,105 L73,105 L73,104 L72,104 L72,102 L71,102 L71,101 L70,101 L70,100 L69,100 L69,99 L68,99 L68,98 L67,98 L67,96 L66,96 L66,95 L65,95 L65,93 L64,93 L64,92 L63,92 L63,91 L62,91 L62,90 L61,90 L61,88 L60,88 L60,87 L59,87 L59,86 L58,86 L58,84 L57,84 L57,83 L56,83 L56,82 L55,82 L55,81 L54,81 L54,79 L53,79 L53,78 L52,78 L52,77 L51,77 L51,75 L49,75 L49,74 L48,74 L48,72 L47,72 L47,71 L46,71 L46,69 L45,69 L45,68 L44,68 L44,67 L43,67 L43,65 L42,65 L42,64 L41,64 L41,63 L40,63 L40,61 L39,61 L39,60 L38,60 L38,58 L36,58 L36,57 L35,57 L35,55 L34,55 L34,54 L33,54 L33,53 L32,53 L32,52 L31,52 L31,50 L30,50 L30,48 L29,48 L29,47 L28,47 L28,46 L27,46 L27,45 L26,45 L26,43 L25,43 L25,42 L24,42 L24,41 L23,41 L23,40 L22,40 L22,38 L21,38 L21,37 L20,37 L20,36 L19,36 L19,34 L18,34 L18,33 L17,33 L17,32 L16,32 L16,30 L15,30 L15,29 L14,29 L14,28 L13,28 L13,27 L12,27 L12,25 L11,25 L11,24 L10,24 L10,23 L9,23 L9,22 L8,22 L8,21 L7,21 L7,20 L6,20 L6,18 L5,18 L5,16 L4,16 L4,15 L3,15 L3,13 L2,13 L2,12 L1,12 L1,11 L0,11 L0,10 L-1,10 L-1,9 L-2,9 L-2,8 L-3,8 L-3,6 L-4,6 L-4,5 L-5,5 L-5,1 L0,1 Z " fill="#000000" transform="translate(189,207)"/>
<path d="M0,0 L177,0 L177,1 L178,1 L178,2 L180,2 L180,3 L181,3 L181,5 L182,5 L182,6 L183,6 L183,7 L184,7 L184,8 L185,8 L185,10 L186,10 L186,11 L187,11 L187,12 L188,12 L188,13 L189,13 L189,15 L190,15 L190,16 L191,16 L191,17 L192,17 L192,19 L193,19 L193,20 L194,20 L194,21 L195,21 L195,23 L196,23 L196,24 L197,24 L197,25 L198,25 L198,26 L199,26 L199,28 L200,28 L200,29 L201,29 L201,30 L202,30 L202,31 L203,31 L203,32 L204,32 L204,33 L205,33 L205,35 L206,35 L206,37 L207,37 L207,38 L208,38 L208,39 L209,39 L209,40 L210,40 L210,41 L211,41 L211,43 L212,43 L212,44 L213,44 L213,45 L214,45 L214,46 L215,46 L215,48 L216,48 L216,49 L217,49 L217,50 L218,50 L218,52 L219,52 L219,53 L220,53 L220,55 L221,55 L221,56 L222,56 L222,57 L223,57 L223,58 L224,58 L224,60 L225,60 L225,61 L226,61 L226,62 L227,62 L227,64 L229,64 L229,66 L230,66 L230,67 L231,67 L231,68 L232,68 L232,70 L233,70 L233,71 L234,71 L234,72 L235,72 L235,74 L236,74 L236,75 L237,75 L237,76 L238,76 L238,77 L239,77 L239,78 L240,78 L240,80 L241,80 L241,81 L242,81 L242,82 L243,82 L243,84 L244,84 L244,85 L245,85 L245,86 L246,86 L246,87 L247,87 L247,89 L248,89 L248,90 L249,90 L249,92 L250,92 L250,93 L251,93 L251,94 L252,94 L252,95 L253,95 L253,97 L254,97 L254,98 L255,98 L255,99 L256,99 L256,100 L257,100 L257,102 L258,102 L258,103 L259,103 L259,104 L260,104 L260,106 L261,106 L261,107 L262,107 L262,108 L263,108 L263,109 L264,109 L264,110 L265,110 L265,112 L266,112 L266,113 L267,113 L267,115 L268,115 L268,116 L269,116 L269,117 L270,117 L270,118 L271,118 L271,120 L272,120 L272,122 L273,122 L273,123 L274,123 L274,124 L275,124 L275,125 L276,125 L276,126 L277,126 L277,127 L278,127 L278,129 L279,129 L279,131 L281,131 L281,133 L282,133 L282,134 L283,134 L283,135 L284,135 L284,137 L285,137 L285,138 L286,138 L286,140 L287,140 L287,141 L288,141 L288,142 L289,142 L289,143 L290,143 L290,144 L291,144 L291,146 L292,146 L292,147 L293,147 L293,148 L294,148 L294,150 L295,150 L295,151 L296,151 L296,152 L297,152 L297,153 L298,153 L298,154 L299,154 L299,156 L300,156 L300,157 L301,157 L301,159 L302,159 L302,160 L303,160 L303,161 L304,161 L304,163 L305,163 L305,164 L306,164 L306,165 L307,165 L307,166 L308,166 L308,167 L309,167 L309,169 L310,169 L310,170 L311,170 L311,171 L312,171 L312,173 L313,173 L313,174 L314,174 L314,175 L315,175 L315,176 L316,176 L316,177 L317,177 L317,179 L318,179 L318,180 L319,180 L319,181 L320,181 L320,183 L321,183 L321,184 L322,184 L322,185 L323,185 L323,187 L324,187 L324,188 L325,188 L325,190 L326,190 L326,191 L327,191 L327,192 L328,192 L328,193 L329,193 L329,194 L330,194 L330,195 L331,195 L331,197 L332,197 L332,198 L333,198 L333,199 L334,199 L334,201 L335,201 L335,202 L336,202 L336,203 L337,203 L337,205 L338,205 L338,206 L339,206 L339,207 L340,207 L340,209 L342,209 L342,211 L343,211 L343,212 L344,212 L344,214 L345,214 L345,215 L346,215 L346,217 L347,217 L347,218 L349,218 L349,220 L350,220 L350,222 L351,222 L351,223 L352,223 L352,224 L353,224 L353,225 L354,225 L354,226 L355,226 L355,227 L356,227 L356,229 L357,229 L357,230 L358,230 L358,231 L359,231 L359,232 L360,232 L360,234 L361,234 L361,236 L362,236 L362,237 L363,237 L363,238 L364,238 L364,239 L365,239 L365,240 L366,240 L366,241 L367,241 L367,243 L368,243 L368,245 L369,245 L369,246 L370,246 L370,247 L371,247 L371,249 L372,249 L372,250 L373,250 L373,251 L374,251 L374,252 L375,252 L375,253 L376,253 L376,255 L377,255 L377,256 L378,256 L378,258 L379,258 L379,259 L380,259 L380,260 L381,260 L381,261 L382,261 L382,262 L383,262 L383,263 L384,263 L384,264 L385,264 L385,266 L386,266 L386,268 L387,268 L387,269 L388,269 L388,270 L389,270 L389,271 L390,271 L390,272 L391,272 L391,274 L392,274 L392,275 L393,275 L393,276 L394,276 L394,278 L395,278 L395,279 L396,279 L396,280 L397,280 L397,282 L398,282 L398,283 L399,283 L399,284 L400,284 L400,285 L401,285 L401,286 L402,286 L402,288 L403,288 L403,289 L404,289 L404,291 L405,291 L405,292 L406,292 L406,293 L407,293 L407,295 L408,295 L408,296 L409,296 L409,297 L410,297 L410,299 L411,299 L411,300 L412,300 L412,301 L413,301 L413,302 L414,302 L414,303 L415,303 L415,304 L416,304 L416,306 L417,306 L417,307 L418,307 L418,308 L419,308 L419,310 L420,310 L420,311 L421,311 L421,313 L422,313 L422,314 L423,314 L423,315 L424,315 L424,316 L425,316 L425,317 L426,317 L426,319 L427,319 L427,320 L428,320 L428,321 L429,321 L429,322 L430,322 L430,324 L431,324 L431,325 L432,325 L432,326 L433,326 L433,328 L434,328 L434,329 L435,329 L435,330 L436,330 L436,332 L437,332 L437,333 L438,333 L438,334 L439,334 L439,335 L440,335 L440,337 L441,337 L441,338 L442,338 L442,339 L443,339 L443,340 L444,340 L444,342 L445,342 L445,343 L446,343 L446,345 L447,345 L447,346 L448,346 L448,347 L449,347 L449,348 L450,348 L450,350 L451,350 L451,351 L452,351 L452,352 L453,352 L453,354 L454,354 L454,355 L455,355 L455,356 L456,356 L456,357 L457,357 L457,358 L458,358 L458,360 L459,360 L459,361 L460,361 L460,362 L461,362 L461,364 L462,364 L462,365 L463,365 L463,366 L464,366 L464,368 L465,368 L465,369 L466,369 L466,370 L467,370 L467,371 L468,371 L468,373 L469,373 L469,374 L470,374 L470,375 L471,375 L471,377 L472,377 L472,378 L473,378 L473,380 L474,380 L474,381 L475,381 L475,382 L476,382 L476,383 L477,383 L477,385 L478,385 L478,386 L479,386 L479,387 L480,387 L480,389 L481,389 L481,390 L482,390 L482,391 L483,391 L483,392 L484,392 L484,394 L485,394 L485,395 L486,395 L486,396 L487,396 L487,397 L488,397 L488,398 L489,398 L489,400 L490,400 L490,401 L491,401 L491,402 L492,402 L492,404 L493,404 L493,405 L494,405 L494,406 L495,406 L495,407 L496,407 L496,408 L497,408 L497,410 L498,410 L498,411 L499,411 L499,413 L500,413 L500,414 L501,414 L501,415 L502,415 L502,416 L503,416 L503,418 L504,418 L504,419 L505,419 L505,420 L506,420 L506,422 L507,422 L507,423 L508,423 L508,424 L509,424 L509,428 L330,428 L330,427 L329,427 L329,425 L328,425 L328,424 L327,424 L327,423 L326,423 L326,421 L325,421 L325,420 L324,420 L324,418 L323,418 L323,417 L322,417 L322,416 L321,416 L321,415 L320,415 L320,413 L319,413 L319,412 L318,412 L318,411 L317,411 L317,410 L316,410 L316,409 L315,409 L315,407 L314,407 L314,406 L313,406 L313,405 L312,405 L312,403 L311,403 L311,402 L310,402 L310,401 L309,401 L309,399 L308,399 L308,398 L307,398 L307,397 L305,397 L305,395 L304,395 L304,394 L303,394 L303,393 L302,393 L302,391 L301,391 L301,390 L300,390 L300,388 L299,388 L299,387 L298,387 L298,386 L297,386 L297,385 L296,385 L296,383 L295,383 L295,381 L294,381 L294,380 L292,380 L292,378 L291,378 L291,377 L290,377 L290,375 L289,375 L289,374 L288,374 L288,373 L287,373 L287,372 L286,372 L286,370 L285,370 L285,369 L284,369 L284,367 L283,367 L283,366 L282,366 L282,365 L281,365 L281,363 L280,363 L280,362 L279,362 L279,361 L278,361 L278,360 L277,360 L277,359 L276,359 L276,357 L275,357 L275,356 L274,356 L274,355 L273,355 L273,354 L272,354 L272,352 L271,352 L271,351 L270,351 L270,350 L269,350 L269,348 L268,348 L268,347 L267,347 L267,346 L266,346 L266,345 L265,345 L265,343 L264,343 L264,342 L263,342 L263,341 L262,341 L262,339 L261,339 L261,338 L260,338 L260,337 L259,337 L259,336 L258,336 L258,334 L257,334 L257,333 L256,333 L256,332 L255,332 L255,330 L254,330 L254,329 L253,329 L253,328 L252,328 L252,327 L251,327 L251,326 L250,326 L250,325 L249,325 L249,323 L248,323 L248,322 L247,322 L247,320 L246,320 L246,319 L245,319 L245,318 L244,318 L244,317 L243,317 L243,315 L242,315 L242,314 L241,314 L241,313 L240,313 L240,311 L239,311 L239,310 L238,310 L238,309 L237,309 L237,308 L236,308 L236,306 L235,306 L235,304 L234,304 L234,303 L233,303 L233,302 L232,302 L232,301 L231,301 L231,300 L230,300 L230,298 L229,298 L229,297 L228,297 L228,295 L227,295 L227,294 L226,294 L226,293 L225,293 L225,291 L224,291 L224,290 L223,290 L223,289 L222,289 L222,288 L221,288 L221,286 L220,286 L220,285 L219,285 L219,284 L218,284 L218,282 L217,282 L217,281 L216,281 L216,280 L215,280 L215,279 L214,279 L214,278 L213,278 L213,277 L212,277 L212,275 L211,275 L211,274 L210,274 L210,272 L209,272 L209,271 L208,271 L208,270 L207,270 L207,269 L206,269 L206,268 L205,268 L205,266 L204,266 L204,265 L203,265 L203,264 L202,264 L202,263 L201,263 L201,261 L200,261 L200,260 L199,260 L199,258 L198,258 L198,257 L197,257 L197,256 L196,256 L196,255 L195,255 L195,253 L193,253 L193,251 L192,251 L192,250 L191,250 L191,249 L190,249 L190,248 L189,248 L189,246 L188,246 L188,245 L187,245 L187,243 L186,243 L186,242 L185,242 L185,241 L184,241 L184,239 L183,239 L183,238 L182,238 L182,236 L181,236 L181,235 L180,235 L180,234 L179,234 L179,232 L177,232 L177,231 L176,231 L176,229 L175,229 L175,227 L173,227 L173,225 L172,225 L172,224 L171,224 L171,223 L170,223 L170,221 L169,221 L169,220 L168,220 L168,218 L166,218 L166,216 L165,216 L165,215 L164,215 L164,214 L163,214 L163,212 L162,212 L162,211 L161,211 L161,209 L160,209 L160,208 L159,208 L159,207 L158,207 L158,206 L157,206 L157,204 L156,204 L156,203 L155,203 L155,202 L154,202 L154,201 L153,201 L153,199 L152,199 L152,198 L151,198 L151,197 L150,197 L150,195 L149,195 L149,194 L148,194 L148,193 L147,193 L147,192 L146,192 L146,190 L145,190 L145,189 L144,189 L144,187 L143,187 L143,186 L142,186 L142,185 L141,185 L141,184 L140,184 L140,183 L139,183 L139,182 L138,182 L138,180 L137,180 L137,179 L136,179 L136,178 L135,178 L135,176 L134,176 L134,175 L133,175 L133,174 L132,174 L132,172 L131,172 L131,171 L130,171 L130,170 L129,170 L129,169 L128,169 L128,167 L127,167 L127,166 L126,166 L126,165 L125,165 L125,164 L124,164 L124,162 L123,162 L123,161 L122,161 L122,160 L121,160 L121,158 L120,158 L120,157 L119,157 L119,156 L118,156 L118,155 L117,155 L117,153 L116,153 L116,152 L115,152 L115,151 L114,151 L114,150 L113,150 L113,148 L112,148 L112,147 L111,147 L111,146 L110,146 L110,144 L109,144 L109,142 L107,142 L107,141 L106,141 L106,140 L105,140 L105,138 L104,138 L104,136 L103,136 L103,134 L102,134 L102,133 L100,133 L100,132 L99,132 L99,130 L97,130 L97,128 L96,128 L96,127 L95,127 L95,125 L94,125 L94,124 L93,124 L93,123 L92,123 L92,122 L91,122 L91,120 L90,120 L90,119 L89,119 L89,117 L88,117 L88,116 L87,116 L87,115 L86,115 L86,113 L85,113 L85,112 L84,112 L84,111 L83,111 L83,109 L82,109 L82,108 L81,108 L81,107 L80,107 L80,106 L79,106 L79,104 L78,104 L78,103 L77,103 L77,102 L76,102 L76,101 L75,101 L75,100 L74,100 L74,98 L73,98 L73,97 L72,97 L72,96 L71,96 L71,94 L70,94 L70,93 L69,93 L69,92 L68,92 L68,90 L67,90 L67,89 L66,89 L66,88 L65,88 L65,87 L64,87 L64,85 L63,85 L63,84 L62,84 L62,83 L61,83 L61,81 L60,81 L60,80 L59,80 L59,79 L58,79 L58,78 L57,78 L57,76 L56,76 L56,75 L55,75 L55,73 L54,73 L54,72 L53,72 L53,71 L52,71 L52,70 L51,70 L51,69 L50,69 L50,68 L49,68 L49,66 L48,66 L48,65 L47,65 L47,64 L46,64 L46,62 L45,62 L45,61 L44,61 L44,59 L43,59 L43,58 L42,58 L42,57 L41,57 L41,56 L40,56 L40,55 L39,55 L39,54 L38,54 L38,52 L37,52 L37,51 L36,51 L36,50 L35,50 L35,48 L34,48 L34,47 L33,47 L33,46 L32,46 L32,45 L31,45 L31,43 L30,43 L30,42 L29,42 L29,40 L28,40 L28,39 L27,39 L27,38 L26,38 L26,36 L25,36 L25,35 L24,35 L24,34 L23,34 L23,33 L22,33 L22,31 L21,31 L21,30 L20,30 L20,29 L19,29 L19,28 L18,28 L18,26 L17,26 L17,25 L16,25 L16,24 L15,24 L15,23 L14,23 L14,21 L13,21 L13,20 L12,20 L12,18 L10,18 L10,16 L9,16 L9,15 L8,15 L8,14 L7,14 L7,12 L6,12 L6,11 L5,11 L5,10 L4,10 L4,8 L3,8 L3,6 L2,6 L2,5 L1,5 L1,4 L0,4 Z " fill="#000000" transform="translate(458,208)"/>
<path d="M0,0 L10,0 L10,1 L164,1 L164,0 L173,0 L173,1 L177,1 L177,3 L178,3 L178,4 L179,4 L179,5 L180,5 L180,6 L181,6 L181,7 L182,7 L182,9 L183,9 L183,10 L184,10 L184,12 L185,12 L185,13 L186,13 L186,15 L187,15 L187,16 L188,16 L188,17 L189,17 L189,18 L190,18 L190,19 L191,19 L191,20 L192,20 L192,21 L193,21 L193,23 L194,23 L194,24 L195,24 L195,25 L196,25 L196,27 L197,27 L197,28 L198,28 L198,29 L199,29 L199,30 L200,30 L200,32 L201,32 L201,33 L202,33 L202,34 L203,34 L203,36 L204,36 L204,37 L205,37 L205,38 L206,38 L206,39 L207,39 L207,41 L208,41 L208,42 L209,42 L209,44 L210,44 L210,45 L211,45 L211,46 L212,46 L212,48 L213,48 L213,49 L214,49 L214,50 L215,50 L215,51 L216,51 L216,53 L217,53 L217,54 L218,54 L218,55 L219,55 L219,57 L220,57 L220,58 L221,58 L221,59 L222,59 L222,61 L223,61 L223,62 L224,62 L224,63 L225,63 L225,64 L226,64 L226,65 L227,65 L227,66 L228,66 L228,68 L229,68 L229,69 L230,69 L230,70 L231,70 L231,72 L232,72 L232,73 L233,73 L233,75 L234,75 L234,76 L235,76 L235,77 L236,77 L236,79 L237,79 L237,80 L238,80 L238,81 L239,81 L239,82 L240,82 L240,83 L241,83 L241,85 L242,85 L242,86 L243,86 L243,87 L244,87 L244,89 L245,89 L245,90 L246,90 L246,92 L247,92 L247,93 L248,93 L248,94 L249,94 L249,95 L250,95 L250,96 L251,96 L251,98 L252,98 L252,99 L253,99 L253,100 L254,100 L254,101 L255,101 L255,103 L256,103 L256,104 L257,104 L257,105 L258,105 L258,106 L259,106 L259,108 L260,108 L260,109 L261,109 L261,110 L262,110 L262,111 L263,111 L263,113 L264,113 L264,114 L265,114 L265,115 L266,115 L266,117 L267,117 L267,118 L268,118 L268,119 L269,119 L269,121 L270,121 L270,122 L271,122 L271,123 L272,123 L272,124 L273,124 L273,125 L274,125 L274,127 L275,127 L275,128 L276,128 L276,130 L277,130 L277,131 L278,131 L278,132 L279,132 L279,133 L280,133 L280,135 L281,135 L281,136 L282,136 L282,137 L283,137 L283,139 L284,139 L284,140 L285,140 L285,141 L286,141 L286,142 L287,142 L287,144 L288,144 L288,145 L289,145 L289,147 L290,147 L290,148 L291,148 L291,149 L292,149 L292,150 L293,150 L293,152 L294,152 L294,153 L295,153 L295,154 L296,154 L296,155 L297,155 L297,157 L298,157 L298,158 L299,158 L299,159 L300,159 L300,161 L301,161 L301,162 L302,162 L302,164 L303,164 L303,165 L304,165 L304,166 L305,166 L305,167 L306,167 L306,168 L307,168 L307,170 L308,170 L308,171 L309,171 L309,172 L310,172 L310,173 L311,173 L311,174 L312,174 L312,175 L313,175 L313,177 L314,177 L314,178 L315,178 L315,180 L316,180 L316,181 L317,181 L317,182 L318,182 L318,183 L319,183 L319,184 L320,184 L320,185 L321,185 L321,187 L322,187 L322,188 L323,188 L323,190 L324,190 L324,191 L325,191 L325,192 L326,192 L326,193 L327,193 L327,195 L328,195 L328,196 L329,196 L329,197 L330,197 L330,199 L331,199 L331,201 L333,201 L333,202 L334,202 L334,204 L335,204 L335,205 L336,205 L336,207 L337,207 L337,208 L338,208 L338,209 L339,209 L339,210 L340,210 L340,212 L341,212 L341,213 L342,213 L342,214 L343,214 L343,216 L344,216 L344,217 L345,217 L345,218 L346,218 L346,219 L347,219 L347,220 L348,220 L348,222 L349,222 L349,223 L350,223 L350,224 L351,224 L351,225 L352,225 L352,227 L353,227 L353,228 L354,228 L354,229 L355,229 L355,230 L356,230 L356,232 L357,232 L357,234 L358,234 L358,235 L359,235 L359,236 L360,236 L360,237 L361,237 L361,238 L362,238 L362,239 L363,239 L363,241 L364,241 L364,243 L365,243 L365,244 L366,244 L366,245 L367,245 L367,247 L369,247 L369,249 L370,249 L370,250 L371,250 L371,251 L372,251 L372,253 L373,253 L373,254 L374,254 L374,255 L375,255 L375,256 L376,256 L376,258 L377,258 L377,259 L378,259 L378,260 L379,260 L379,261 L380,261 L380,263 L381,263 L381,264 L382,264 L382,265 L383,265 L383,267 L384,267 L384,268 L385,268 L385,269 L386,269 L386,271 L387,271 L387,272 L388,272 L388,273 L389,273 L389,274 L390,274 L390,276 L391,276 L391,277 L392,277 L392,278 L393,278 L393,279 L394,279 L394,281 L395,281 L395,283 L396,283 L396,284 L397,284 L397,285 L398,285 L398,286 L399,286 L399,288 L400,288 L400,289 L401,289 L401,290 L402,290 L402,292 L403,292 L403,293 L404,293 L404,294 L405,294 L405,295 L406,295 L406,297 L407,297 L407,298 L408,298 L408,299 L409,299 L409,301 L410,301 L410,302 L411,302 L411,303 L412,303 L412,304 L413,304 L413,306 L414,306 L414,307 L415,307 L415,308 L416,308 L416,309 L417,309 L417,311 L418,311 L418,312 L419,312 L419,313 L420,313 L420,314 L421,314 L421,316 L422,316 L422,317 L423,317 L423,318 L424,318 L424,320 L425,320 L425,321 L426,321 L426,322 L427,322 L427,324 L428,324 L428,325 L429,325 L429,326 L430,326 L430,327 L431,327 L431,329 L432,329 L432,330 L433,330 L433,331 L434,331 L434,332 L435,332 L435,333 L436,333 L436,335 L437,335 L437,336 L438,336 L438,338 L439,338 L439,339 L440,339 L440,340 L441,340 L441,341 L442,341 L442,343 L443,343 L443,345 L445,345 L445,346 L446,346 L446,348 L447,348 L447,350 L448,350 L448,351 L449,351 L449,352 L450,352 L450,353 L451,353 L451,354 L452,354 L452,356 L453,356 L453,357 L454,357 L454,358 L455,358 L455,360 L456,360 L456,361 L457,361 L457,362 L458,362 L458,363 L459,363 L459,364 L460,364 L460,365 L461,365 L461,367 L462,367 L462,369 L463,369 L463,370 L464,370 L464,371 L465,371 L465,372 L466,372 L466,374 L467,374 L467,375 L468,375 L468,376 L469,376 L469,377 L470,377 L470,378 L471,378 L471,379 L472,379 L472,381 L473,381 L473,382 L474,382 L474,383 L475,383 L475,384 L476,384 L476,386 L477,386 L477,387 L478,387 L478,388 L479,388 L479,389 L480,389 L480,391 L481,391 L481,392 L482,392 L482,394 L483,394 L483,395 L484,395 L484,396 L485,396 L485,398 L486,398 L486,399 L487,399 L487,400 L488,400 L488,402 L489,402 L489,403 L490,403 L490,405 L491,405 L491,406 L492,406 L492,407 L493,407 L493,408 L494,408 L494,409 L495,409 L495,411 L496,411 L496,412 L497,412 L497,413 L498,413 L498,414 L499,414 L499,416 L500,416 L500,417 L501,417 L501,418 L502,418 L502,420 L503,420 L503,422 L504,422 L504,423 L505,423 L505,424 L506,424 L506,426 L507,426 L507,429 L330,429 L330,428 L328,428 L328,427 L327,427 L327,426 L326,426 L326,425 L325,425 L325,423 L324,423 L324,422 L323,422 L323,421 L322,421 L322,420 L321,420 L321,418 L319,418 L319,416 L318,416 L318,415 L317,415 L317,413 L316,413 L316,412 L315,412 L315,411 L314,411 L314,410 L313,410 L313,408 L312,408 L312,407 L311,407 L311,406 L310,406 L310,404 L309,404 L309,403 L308,403 L308,402 L307,402 L307,401 L306,401 L306,399 L305,399 L305,398 L304,398 L304,397 L303,397 L303,395 L302,395 L302,394 L301,394 L301,393 L300,393 L300,392 L299,392 L299,390 L298,390 L298,389 L297,389 L297,388 L296,388 L296,386 L295,386 L295,385 L294,385 L294,384 L293,384 L293,383 L292,383 L292,381 L291,381 L291,380 L290,380 L290,379 L289,379 L289,378 L288,378 L288,376 L287,376 L287,374 L286,374 L286,373 L285,373 L285,372 L284,372 L284,371 L283,371 L283,370 L282,370 L282,369 L281,369 L281,367 L280,367 L280,365 L279,365 L279,364 L278,364 L278,363 L277,363 L277,362 L276,362 L276,361 L275,361 L275,359 L274,359 L274,358 L273,358 L273,357 L272,357 L272,356 L271,356 L271,354 L270,354 L270,353 L269,353 L269,351 L268,351 L268,350 L267,350 L267,349 L266,349 L266,348 L265,348 L265,346 L264,346 L264,345 L263,345 L263,344 L262,344 L262,343 L261,343 L261,341 L260,341 L260,340 L259,340 L259,339 L258,339 L258,338 L257,338 L257,336 L256,336 L256,335 L255,335 L255,334 L254,334 L254,332 L252,332 L252,330 L251,330 L251,328 L250,328 L250,327 L249,327 L249,326 L248,326 L248,325 L247,325 L247,323 L246,323 L246,322 L245,322 L245,321 L244,321 L244,320 L243,320 L243,319 L242,319 L242,317 L241,317 L241,316 L240,316 L240,315 L239,315 L239,313 L238,313 L238,312 L237,312 L237,311 L236,311 L236,310 L235,310 L235,308 L234,308 L234,307 L233,307 L233,306 L232,306 L232,304 L231,304 L231,303 L230,303 L230,302 L229,302 L229,301 L228,301 L228,299 L227,299 L227,298 L226,298 L226,296 L225,296 L225,295 L224,295 L224,294 L223,294 L223,293 L222,293 L222,291 L221,291 L221,290 L220,290 L220,288 L219,288 L219,287 L218,287 L218,286 L217,286 L217,285 L216,285 L216,284 L215,284 L215,283 L214,283 L214,282 L213,282 L213,280 L212,280 L212,278 L211,278 L211,277 L210,277 L210,276 L209,276 L209,275 L208,275 L208,274 L207,274 L207,273 L206,273 L206,271 L205,271 L205,270 L204,270 L204,269 L203,269 L203,267 L202,267 L202,265 L201,265 L201,264 L200,264 L200,263 L199,263 L199,262 L198,262 L198,260 L197,260 L197,259 L196,259 L196,258 L195,258 L195,257 L194,257 L194,255 L193,255 L193,254 L192,254 L192,253 L191,253 L191,252 L190,252 L190,250 L189,250 L189,249 L188,249 L188,248 L187,248 L187,246 L186,246 L186,245 L185,245 L185,244 L184,244 L184,242 L183,242 L183,241 L182,241 L182,240 L181,240 L181,239 L180,239 L180,237 L179,237 L179,236 L178,236 L178,235 L177,235 L177,234 L176,234 L176,233 L175,233 L175,231 L174,231 L174,230 L173,230 L173,229 L172,229 L172,227 L171,227 L171,226 L170,226 L170,225 L169,225 L169,223 L168,223 L168,222 L167,222 L167,220 L166,220 L166,219 L165,219 L165,218 L164,218 L164,216 L163,216 L163,215 L162,215 L162,214 L161,214 L161,213 L160,213 L160,211 L159,211 L159,210 L158,210 L158,209 L157,209 L157,208 L156,208 L156,207 L155,207 L155,205 L154,205 L154,203 L153,203 L153,202 L152,202 L152,201 L151,201 L151,200 L150,200 L150,199 L149,199 L149,197 L148,197 L148,196 L146,196 L146,194 L145,194 L145,192 L144,192 L144,191 L143,191 L143,190 L142,190 L142,189 L141,189 L141,188 L140,188 L140,187 L139,187 L139,185 L138,185 L138,184 L137,184 L137,183 L136,183 L136,181 L135,181 L135,180 L134,180 L134,178 L133,178 L133,177 L132,177 L132,176 L131,176 L131,175 L130,175 L130,173 L129,173 L129,172 L128,172 L128,171 L127,171 L127,170 L126,170 L126,168 L125,168 L125,167 L124,167 L124,166 L123,166 L123,165 L122,165 L122,163 L121,163 L121,162 L120,162 L120,160 L119,160 L119,159 L118,159 L118,158 L117,158 L117,156 L116,156 L116,155 L115,155 L115,154 L114,154 L114,153 L113,153 L113,151 L112,151 L112,150 L111,150 L111,149 L110,149 L110,148 L109,148 L109,146 L108,146 L108,145 L107,145 L107,143 L106,143 L106,142 L105,142 L105,141 L104,141 L104,140 L103,140 L103,139 L102,139 L102,137 L101,137 L101,136 L100,136 L100,135 L99,135 L99,133 L98,133 L98,132 L97,132 L97,131 L96,131 L96,130 L95,130 L95,128 L94,128 L94,127 L93,127 L93,126 L92,126 L92,124 L91,124 L91,123 L90,123 L90,122 L89,122 L89,121 L88,121 L88,119 L87,119 L87,118 L86,118 L86,117 L85,117 L85,116 L84,116 L84,114 L83,114 L83,113 L82,113 L82,112 L81,112 L81,111 L80,111 L80,109 L79,109 L79,108 L78,108 L78,107 L77,107 L77,105 L76,105 L76,104 L75,104 L75,103 L74,103 L74,102 L73,102 L73,101 L72,101 L72,99 L71,99 L71,98 L70,98 L70,97 L69,97 L69,95 L68,95 L68,94 L67,94 L67,93 L66,93 L66,91 L65,91 L65,90 L64,90 L64,89 L63,89 L63,88 L62,88 L62,86 L61,86 L61,85 L60,85 L60,83 L59,83 L59,82 L58,82 L58,81 L57,81 L57,80 L56,80 L56,78 L55,78 L55,77 L54,77 L54,76 L53,76 L53,75 L52,75 L52,73 L51,73 L51,72 L50,72 L50,71 L49,71 L49,70 L48,70 L48,68 L47,68 L47,67 L46,67 L46,65 L45,65 L45,64 L44,64 L44,63 L43,63 L43,62 L42,62 L42,60 L41,60 L41,59 L40,59 L40,57 L39,57 L39,56 L38,56 L38,55 L37,55 L37,54 L36,54 L36,53 L35,53 L35,51 L34,51 L34,50 L33,50 L33,49 L32,49 L32,47 L31,47 L31,46 L30,46 L30,45 L29,45 L29,44 L28,44 L28,42 L27,42 L27,41 L26,41 L26,40 L25,40 L25,39 L24,39 L24,37 L23,37 L23,36 L22,36 L22,35 L21,35 L21,33 L20,33 L20,32 L19,32 L19,30 L18,30 L18,29 L17,29 L17,28 L16,28 L16,27 L15,27 L15,25 L14,25 L14,24 L13,24 L13,23 L12,23 L12,22 L11,22 L11,21 L10,21 L10,20 L9,20 L9,18 L8,18 L8,17 L7,17 L7,16 L6,16 L6,14 L5,14 L5,12 L4,12 L4,10 L2,10 L2,9 L1,9 L1,7 L0,7 L0,6 L-1,6 L-1,5 L-2,5 L-2,3 L-3,3 L-3,1 L0,1 Z " fill="#000000" transform="translate(34,363)"/>
<path d="M0,0 L178,0 L178,1 L180,1 L180,2 L181,2 L181,3 L182,3 L182,5 L183,5 L183,6 L184,6 L184,7 L185,7 L185,8 L186,8 L186,10 L187,10 L187,11 L188,11 L188,12 L189,12 L189,14 L190,14 L190,16 L191,16 L191,17 L192,17 L192,18 L193,18 L193,19 L194,19 L194,20 L195,20 L195,22 L196,22 L196,23 L197,23 L197,24 L198,24 L198,25 L199,25 L199,27 L200,27 L200,28 L201,28 L201,29 L202,29 L202,31 L203,31 L203,32 L204,32 L204,33 L205,33 L205,34 L206,34 L206,35 L207,35 L207,37 L208,37 L208,38 L209,38 L209,40 L210,40 L210,41 L211,41 L211,42 L212,42 L212,43 L213,43 L213,45 L214,45 L214,46 L215,46 L215,47 L216,47 L216,49 L217,49 L217,50 L218,50 L218,51 L219,51 L219,52 L220,52 L220,54 L221,54 L221,55 L222,55 L222,56 L223,56 L223,57 L224,57 L224,59 L225,59 L225,60 L226,60 L226,61 L227,61 L227,62 L228,62 L228,64 L229,64 L229,65 L230,65 L230,66 L231,66 L231,67 L232,67 L232,69 L233,69 L233,71 L234,71 L234,72 L235,72 L235,73 L236,73 L236,75 L237,75 L237,76 L238,76 L238,77 L239,77 L239,78 L240,78 L240,79 L241,79 L241,81 L242,81 L242,82 L243,82 L243,84 L244,84 L244,85 L245,85 L245,86 L246,86 L246,87 L247,87 L247,88 L248,88 L248,89 L249,89 L249,91 L250,91 L250,92 L251,92 L251,93 L252,93 L252,94 L253,94 L253,95 L254,95 L254,97 L255,97 L255,98 L256,98 L256,100 L257,100 L257,101 L258,101 L258,102 L259,102 L259,104 L260,104 L260,105 L261,105 L261,106 L262,106 L262,107 L263,107 L263,109 L264,109 L264,110 L265,110 L265,112 L266,112 L266,113 L267,113 L267,114 L268,114 L268,116 L269,116 L269,117 L270,117 L270,118 L271,118 L271,120 L272,120 L272,121 L273,121 L273,122 L274,122 L274,123 L275,123 L275,124 L276,124 L276,126 L277,126 L277,127 L278,127 L278,128 L279,128 L279,130 L280,130 L280,131 L281,131 L281,132 L282,132 L282,133 L283,133 L283,135 L284,135 L284,136 L285,136 L285,137 L286,137 L286,138 L287,138 L287,140 L288,140 L288,141 L289,141 L289,142 L290,142 L290,144 L291,144 L291,145 L292,145 L292,146 L293,146 L293,147 L294,147 L294,148 L295,148 L295,150 L296,150 L296,151 L297,151 L297,153 L299,153 L299,155 L300,155 L300,156 L301,156 L301,157 L302,157 L302,158 L303,158 L303,160 L304,160 L304,161 L305,161 L305,162 L306,162 L306,163 L307,163 L307,165 L308,165 L308,166 L309,166 L309,168 L310,168 L310,170 L311,170 L311,171 L312,171 L312,172 L313,172 L313,173 L314,173 L314,175 L315,175 L315,176 L316,176 L316,177 L317,177 L317,178 L318,178 L318,179 L319,179 L319,181 L320,181 L320,182 L321,182 L321,183 L322,183 L322,184 L323,184 L323,186 L324,186 L324,187 L325,187 L325,189 L326,189 L326,190 L327,190 L327,191 L328,191 L328,192 L329,192 L329,194 L330,194 L330,195 L331,195 L331,196 L332,196 L332,197 L333,197 L333,199 L334,199 L334,200 L335,200 L335,201 L336,201 L336,202 L337,202 L337,204 L338,204 L338,206 L339,206 L339,207 L340,207 L340,208 L341,208 L341,209 L342,209 L342,210 L343,210 L343,212 L344,212 L344,213 L345,213 L345,214 L346,214 L346,215 L347,215 L347,216 L348,216 L348,218 L349,218 L349,219 L350,219 L350,220 L351,220 L351,222 L352,222 L352,223 L353,223 L353,225 L354,225 L354,226 L355,226 L355,227 L356,227 L356,228 L357,228 L357,229 L358,229 L358,231 L359,231 L359,232 L360,232 L360,233 L361,233 L361,234 L362,234 L362,236 L363,236 L363,237 L364,237 L364,238 L365,238 L365,239 L366,239 L366,241 L367,241 L367,243 L368,243 L368,244 L369,244 L369,245 L370,245 L370,246 L371,246 L371,248 L373,248 L373,250 L374,250 L374,252 L375,252 L375,255 L197,255 L197,254 L195,254 L195,253 L194,253 L194,251 L193,251 L193,250 L192,250 L192,248 L191,248 L191,247 L190,247 L190,246 L189,246 L189,244 L188,244 L188,243 L187,243 L187,242 L186,242 L186,241 L185,241 L185,239 L184,239 L184,238 L182,238 L182,236 L181,236 L181,234 L180,234 L180,233 L179,233 L179,232 L178,232 L178,231 L177,231 L177,230 L176,230 L176,228 L175,228 L175,227 L174,227 L174,225 L172,225 L172,223 L171,223 L171,222 L170,222 L170,221 L169,221 L169,219 L168,219 L168,218 L167,218 L167,217 L166,217 L166,215 L165,215 L165,214 L164,214 L164,213 L163,213 L163,211 L162,211 L162,210 L161,210 L161,209 L160,209 L160,208 L159,208 L159,206 L158,206 L158,205 L157,205 L157,204 L156,204 L156,203 L155,203 L155,201 L154,201 L154,200 L153,200 L153,199 L152,199 L152,197 L151,197 L151,196 L150,196 L150,195 L149,195 L149,194 L148,194 L148,192 L147,192 L147,191 L146,191 L146,189 L145,189 L145,188 L144,188 L144,187 L143,187 L143,186 L142,186 L142,185 L141,185 L141,183 L140,183 L140,182 L139,182 L139,181 L138,181 L138,180 L137,180 L137,178 L136,178 L136,177 L135,177 L135,176 L134,176 L134,174 L133,174 L133,172 L132,172 L132,171 L130,171 L130,169 L129,169 L129,168 L128,168 L128,166 L127,166 L127,165 L126,165 L126,164 L125,164 L125,163 L124,163 L124,162 L123,162 L123,160 L122,160 L122,159 L121,159 L121,158 L120,158 L120,157 L119,157 L119,156 L118,156 L118,154 L117,154 L117,153 L116,153 L116,151 L115,151 L115,150 L114,150 L114,148 L112,148 L112,146 L111,146 L111,145 L110,145 L110,144 L109,144 L109,142 L108,142 L108,141 L107,141 L107,140 L106,140 L106,138 L105,138 L105,137 L104,137 L104,136 L103,136 L103,135 L102,135 L102,133 L101,133 L101,132 L100,132 L100,131 L99,131 L99,129 L98,129 L98,128 L97,128 L97,127 L96,127 L96,125 L95,125 L95,124 L94,124 L94,123 L93,123 L93,122 L92,122 L92,120 L91,120 L91,119 L90,119 L90,118 L89,118 L89,116 L88,116 L88,115 L87,115 L87,114 L86,114 L86,113 L85,113 L85,112 L84,112 L84,110 L83,110 L83,109 L82,109 L82,108 L81,108 L81,106 L80,106 L80,105 L79,105 L79,104 L78,104 L78,102 L77,102 L77,101 L76,101 L76,100 L75,100 L75,99 L74,99 L74,98 L73,98 L73,96 L72,96 L72,95 L71,95 L71,94 L70,94 L70,93 L69,93 L69,91 L68,91 L68,90 L67,90 L67,89 L66,89 L66,87 L65,87 L65,86 L64,86 L64,84 L63,84 L63,83 L62,83 L62,82 L61,82 L61,81 L60,81 L60,79 L59,79 L59,78 L58,78 L58,77 L57,77 L57,76 L56,76 L56,75 L55,75 L55,73 L54,73 L54,72 L53,72 L53,70 L52,70 L52,69 L51,69 L51,68 L50,68 L50,67 L49,67 L49,65 L48,65 L48,64 L47,64 L47,63 L46,63 L46,61 L45,61 L45,60 L44,60 L44,59 L43,59 L43,57 L42,57 L42,56 L41,56 L41,55 L40,55 L40,53 L39,53 L39,52 L38,52 L38,51 L37,51 L37,50 L36,50 L36,49 L35,49 L35,47 L34,47 L34,46 L33,46 L33,45 L32,45 L32,43 L31,43 L31,42 L30,42 L30,40 L29,40 L29,39 L28,39 L28,38 L27,38 L27,37 L26,37 L26,35 L25,35 L25,34 L24,34 L24,33 L23,33 L23,32 L22,32 L22,30 L21,30 L21,29 L20,29 L20,27 L19,27 L19,26 L18,26 L18,25 L17,25 L17,24 L16,24 L16,23 L15,23 L15,21 L14,21 L14,20 L13,20 L13,19 L12,19 L12,17 L10,17 L10,16 L9,16 L9,14 L8,14 L8,12 L7,12 L7,11 L6,11 L6,10 L5,10 L5,9 L4,9 L4,8 L3,8 L3,7 L2,7 L2,5 L1,5 L1,3 L0,3 Z " fill="#000000" transform="translate(440,537)"/>
</svg>
